<svg width="222" height="157" viewBox="0 0 222 157" fill="none" xmlns="http://www.w3.org/2000/svg">
<g opacity="0.1">
<path opacity="0.5" d="M43.2349 28.7851L24.6193 95.684C21.6043 106.519 27.9437 117.747 38.7788 120.762L149.388 151.54C160.223 154.555 171.45 148.216 174.466 137.381L193.081 70.482C196.096 59.6469 189.757 48.4191 178.922 45.4041L68.3128 14.6256C57.4777 11.6106 46.25 17.95 43.2349 28.7851Z" fill="#AAAAAA" style="fill:#AAAAAA;fill:color(display-p3 0.6667 0.6667 0.6667);fill-opacity:1;"/>
<path opacity="0.12" d="M187.596 32.1758H73.5555C54.8917 32.1758 39.7617 47.3058 39.7617 65.9696C39.7617 84.6334 54.8917 99.7634 73.5555 99.7634H187.596C206.26 99.7634 221.39 84.6334 221.39 65.9696C221.39 47.3058 206.26 32.1758 187.596 32.1758Z" fill="#AAAAAA" style="fill:#AAAAAA;fill:color(display-p3 0.6667 0.6667 0.6667);fill-opacity:1;"/>
<path d="M15.6811 130.116C17.561 130.116 19.0849 128.592 19.0849 126.712C19.0849 124.833 17.561 123.309 15.6811 123.309C13.8013 123.309 12.2773 124.833 12.2773 126.712C12.2773 128.592 13.8013 130.116 15.6811 130.116Z" fill="#FF760A" style="fill:#FF760A;fill:color(display-p3 1.0000 0.4627 0.0392);fill-opacity:1;"/>
<path opacity="0.12" d="M142.412 67.4805H33.7938C15.13 67.4805 0 82.6105 0 101.274C0 119.938 15.13 135.068 33.7938 135.068H142.412C161.076 135.068 176.206 119.938 176.206 101.274C176.206 82.6105 161.076 67.4805 142.412 67.4805Z" fill="#AAAAAA" style="fill:#AAAAAA;fill:color(display-p3 0.6667 0.6667 0.6667);fill-opacity:1;"/>
<path d="M17.1069 36.1552C18.9867 36.1552 20.5107 34.6313 20.5107 32.7514C20.5107 30.8716 18.9867 29.3477 17.1069 29.3477C15.227 29.3477 13.7031 30.8716 13.7031 32.7514C13.7031 34.6313 15.227 36.1552 17.1069 36.1552Z" fill="#FF760A" style="fill:#FF760A;fill:color(display-p3 1.0000 0.4627 0.0392);fill-opacity:1;"/>
<g opacity="0.15">
<path d="M209.216 130.289L202.75 135.644C202.202 136.192 201.895 136.936 201.895 137.711C201.895 138.487 202.202 139.23 202.75 139.779C203.307 140.311 204.048 140.608 204.818 140.608C205.588 140.608 206.328 140.311 206.885 139.779L213.352 134.425C213.9 133.876 214.207 133.132 214.207 132.357C214.207 131.582 213.9 130.838 213.352 130.289C212.795 129.758 212.054 129.461 211.284 129.461C210.514 129.461 209.773 129.758 209.216 130.289Z" fill="#FF760A" style="fill:#FF760A;fill:color(display-p3 1.0000 0.4627 0.0392);fill-opacity:1;"/>
<path d="M212.806 136.201L207.452 129.735C206.903 129.187 206.16 128.879 205.384 128.879C204.609 128.879 203.865 129.187 203.317 129.735C202.785 130.292 202.488 131.032 202.488 131.802C202.488 132.572 202.785 133.313 203.317 133.87L208.671 140.336C209.22 140.884 209.963 141.192 210.739 141.192C211.514 141.192 212.258 140.884 212.806 140.336C213.338 139.779 213.635 139.038 213.635 138.268C213.635 137.498 213.338 136.758 212.806 136.201Z" fill="#FF760A" style="fill:#FF760A;fill:color(display-p3 1.0000 0.4627 0.0392);fill-opacity:1;"/>
</g>
<path d="M181.824 40.4551L181.912 46.0436C181.931 46.192 182.003 46.3284 182.115 46.4273C182.228 46.5262 182.372 46.5807 182.522 46.5807C182.671 46.5807 182.816 46.5262 182.928 46.4273C183.04 46.3284 183.112 46.192 183.131 46.0436L183.043 40.4551C183.025 40.3068 182.952 40.1703 182.84 40.0714C182.728 39.9725 182.583 39.918 182.434 39.918C182.284 39.918 182.14 39.9725 182.028 40.0714C181.915 40.1703 181.843 40.3068 181.824 40.4551Z" fill="white" style="fill:white;fill-opacity:1;"/>
<path d="M177.93 30.643H182.514L181.909 30.0383V34.2028C181.928 34.3512 182 34.4876 182.112 34.5865C182.224 34.6854 182.369 34.74 182.519 34.74C182.668 34.74 182.813 34.6854 182.925 34.5865C183.037 34.4876 183.109 34.3512 183.128 34.2028V30.0578C183.126 29.8982 183.061 29.7459 182.948 29.633C182.835 29.5202 182.683 29.4556 182.523 29.4531H177.94C177.791 29.4719 177.655 29.5442 177.556 29.6564C177.457 29.7687 177.402 29.9131 177.402 30.0627C177.402 30.2123 177.457 30.3567 177.556 30.4689C177.655 30.5811 177.791 30.6534 177.94 30.6722L177.93 30.643Z" fill="white" style="fill:white;fill-opacity:1;"/>
<path d="M38.3521 20.0019L19.7365 86.9008C16.7215 97.7359 23.0609 108.964 33.896 111.979L144.505 142.757C155.34 145.772 166.568 139.433 169.583 128.598L188.198 61.6988C191.213 50.8637 184.874 39.6359 174.039 36.6209L63.43 5.84239C52.5949 2.82737 41.3672 9.16678 38.3521 20.0019Z" fill="#FEEEE1" style="fill:#FEEEE1;fill:color(display-p3 0.9951 0.9322 0.8827);fill-opacity:1;"/>
<path d="M20.264 98.5338L19.0547 95.8713L78.0208 69.0703L78.5474 70.582C78.6157 70.7868 85.7158 90.751 99.916 94.1743C107.894 96.1249 116.759 92.4578 126.249 83.3681L128.268 85.4845C118.008 95.3056 108.255 99.1873 99.2236 97.0124C85.7256 93.7549 78.3816 78.0332 76.353 73.0397L20.264 98.5338Z" fill="#FFDECC" style="fill:#FFDECC;fill:color(display-p3 1.0000 0.8706 0.8000);fill-opacity:1;"/>
<path d="M127.082 86.2578L129.427 84.5076L166.111 133.652L163.766 135.402L127.082 86.2578Z" fill="#FFDECC" style="fill:#FFDECC;fill:color(display-p3 1.0000 0.8706 0.8000);fill-opacity:1;"/>
<path d="M172.355 36.8167L65.1805 6.98257C54.6766 4.05669 46.2403 6.54369 43.4218 11.5664L41.832 15.5554C43.3535 10.1035 53.1649 9.51832 63.6688 12.4344L170.834 42.2686C181.338 45.1945 188.613 52.0215 187.102 57.4344L188.623 51.9727C190.184 46.5306 182.859 39.7328 172.355 36.8167Z" fill="white" style="fill:white;fill-opacity:1;"/>
<path d="M38.4693 19.6191L19.8537 86.518C16.8387 97.3531 23.1781 108.581 34.0132 111.596L144.622 142.374C155.457 145.389 166.685 139.05 169.7 128.215L188.315 61.3159C191.331 50.4808 184.991 39.2531 174.156 36.2381L63.5472 5.45958C52.7121 2.44455 41.4843 8.78397 38.4693 19.6191Z" stroke="#FF760A" style="stroke:#FF760A;stroke:color(display-p3 1.0000 0.4627 0.0392);stroke-opacity:1;" stroke-width="8.86119" strokeMiterlimit="10" stroke-linecap="round"/>
<path d="M20.2109 94.5361L77.363 68.3203" stroke="#FF760A" style="stroke:#FF760A;stroke:color(display-p3 1.0000 0.4627 0.0392);stroke-opacity:1;" stroke-width="8.86119" strokeMiterlimit="10" stroke-linecap="round"/>
<path d="M129.602 83.2441L166.448 134.096" stroke="#FF760A" style="stroke:#FF760A;stroke:color(display-p3 1.0000 0.4627 0.0392);stroke-opacity:1;" stroke-width="8.86119" strokeMiterlimit="10" stroke-linecap="round"/>
<path d="M41.8242 14.3672L87.7799 84.1688C90.2374 88.3153 94.202 91.3518 98.8456 92.644C103.489 93.9362 108.452 93.3841 112.699 91.1031L188.859 54.7442" stroke="#FF760A" style="stroke:#FF760A;stroke:color(display-p3 1.0000 0.4627 0.0392);stroke-opacity:1;" stroke-width="8.86119" strokeMiterlimit="10" stroke-linecap="round"/>
</g>
</svg>
