<svg width="213" height="213" viewBox="0 0 213 213" fill="none" xmlns="http://www.w3.org/2000/svg">
<g opacity="0.1">
<path d="M48.0525 117.542C49.286 117.228 50.0318 115.974 49.7183 114.741C49.4048 113.507 48.1507 112.761 46.9171 113.075C45.6836 113.388 44.9377 114.643 45.2513 115.876C45.5648 117.11 46.8189 117.856 48.0525 117.542Z" fill="white" style="fill:white;fill-opacity:1;"/>
<path d="M125.271 191.785C122.158 192.57 118.875 192.317 115.919 191.066C112.963 189.814 110.497 187.632 108.895 184.851L97.0648 164.228C96.3412 162.87 95.3521 161.672 94.1561 160.704C92.9602 159.737 91.5819 159.019 90.1031 158.595C88.6244 158.171 87.0755 158.048 85.5485 158.235C84.0214 158.421 82.5474 158.912 81.2141 159.68C79.8809 160.447 78.7155 161.475 77.7874 162.702C76.8593 163.929 76.1873 165.33 75.8115 166.822C75.4357 168.313 75.3637 169.865 75.5997 171.386C75.8358 172.906 76.3751 174.363 77.1856 175.67L81.16 182.537C81.2675 182.724 81.3368 182.931 81.3639 183.145C81.3909 183.36 81.3751 183.577 81.3174 183.785C81.2598 183.994 81.1613 184.188 81.0279 184.358C80.8944 184.528 80.7285 184.67 80.5399 184.775C80.1711 184.977 79.7386 185.029 79.3325 184.92C78.9264 184.811 78.5781 184.549 78.3601 184.19L74.2343 177.312C73.2721 175.638 72.649 173.79 72.4008 171.875C72.1526 169.959 72.284 168.014 72.7877 166.149C73.2913 164.285 74.1573 162.538 75.3361 161.008C76.5149 159.478 77.9835 158.196 79.658 157.233C81.3325 156.271 83.1802 155.648 85.0955 155.4C87.0108 155.152 88.9562 155.283 90.8207 155.787C92.6852 156.29 94.4323 157.156 95.9621 158.335C97.492 159.514 98.7746 160.982 99.7369 162.657L111.567 183.28C112.309 184.623 113.312 185.804 114.517 186.754C115.722 187.703 117.104 188.403 118.583 188.812C120.062 189.22 121.607 189.329 123.129 189.133C124.651 188.936 126.118 188.437 127.444 187.666L134.008 183.868C135.318 183.123 136.467 182.126 137.39 180.935C138.313 179.745 138.991 178.383 139.386 176.929C139.781 175.475 139.884 173.958 139.69 172.464C139.496 170.97 139.009 169.529 138.256 168.224L128.184 150.622C127.967 150.25 127.905 149.808 128.012 149.391C128.12 148.974 128.388 148.616 128.758 148.395C128.945 148.288 129.152 148.219 129.366 148.192C129.581 148.165 129.798 148.18 130.006 148.238C130.214 148.296 130.409 148.394 130.579 148.528C130.749 148.661 130.891 148.827 130.996 149.016L140.834 166.479C141.834 168.14 142.488 169.987 142.756 171.907C143.025 173.827 142.904 175.782 142.399 177.655C141.894 179.527 141.016 181.278 139.819 182.803C138.621 184.328 137.127 185.595 135.428 186.529L128.817 190.339C127.707 190.981 126.513 191.468 125.271 191.785Z" fill="#FF760A" style="fill:#FF760A;fill:color(display-p3 1.0000 0.4627 0.0392);fill-opacity:1;"/>
<path d="M82.9396 78.8011C87.4477 88.1574 97.161 106.495 102.18 115.523C102.496 116.236 103.075 116.8 103.796 117.097C104.518 117.394 105.326 117.4 106.052 117.115L114.145 114.067C116.692 113.108 119.512 113.18 122.008 114.266C124.503 115.351 126.478 117.367 127.512 119.884L139.676 142.403C141.182 144.676 141.738 147.448 141.224 150.126C140.71 152.803 139.167 155.173 136.925 156.725L122.406 163.14C120.307 164.146 117.942 164.459 115.653 164.034C113.364 163.61 111.269 162.47 109.67 160.779C79.1449 129.5 58.2902 90.0802 49.6061 47.2465C49.1228 45.0212 49.3454 42.7005 50.2431 40.6077C51.1408 38.5149 52.6688 36.7542 54.6143 35.5707L69.3541 29.0504C71.871 28.1233 74.6477 28.1979 77.1112 29.2587C79.5747 30.3195 81.537 32.2856 82.5929 34.7511L94.6167 57.3063C96.141 59.5678 96.7178 62.3368 96.2231 65.0189C95.7285 67.7009 94.2019 70.0821 91.9712 71.6511L83.8792 74.8965C83.272 75.3197 82.8411 75.9508 82.6679 76.6704C82.4947 77.39 82.5914 78.1481 82.9396 78.8011Z" fill="white" style="fill:white;fill-opacity:1;"/>
<path d="M87.3992 76.4783C91.9191 85.8811 101.621 104.172 106.64 113.2C106.967 113.915 107.556 114.477 108.284 114.77C109.013 115.064 109.827 115.068 110.558 114.78L118.605 111.744C121.157 110.783 123.982 110.852 126.485 111.935C128.988 113.018 130.972 115.031 132.019 117.549L144.042 140.104C145.562 142.366 146.131 145.136 145.625 147.814C145.119 150.492 143.579 152.863 141.338 154.414L126.831 160.875C124.746 161.81 122.423 162.074 120.181 161.632C117.939 161.191 115.89 160.064 114.315 158.409C83.7773 127.14 62.9204 87.7157 54.2519 44.8763C53.7685 42.651 53.9911 40.3304 54.8888 38.2376C55.7865 36.1448 57.3145 34.384 59.26 33.2006L73.8137 26.7276C76.3291 25.8289 79.0929 25.9259 81.5391 26.9988C83.9853 28.0717 85.9287 30.0393 86.9713 32.4985L98.9138 55.1238C100.421 57.364 100.995 60.1039 100.514 62.7608C100.033 65.4178 98.5349 67.7824 96.3377 69.3519L88.245 72.3994C87.6082 72.8414 87.1654 73.5111 87.0081 74.2701C86.8507 75.0291 86.9907 75.8195 87.3992 76.4783Z" fill="#FFDECC" style="fill:#FFDECC;fill:color(display-p3 1.0000 0.8706 0.8000);fill-opacity:1;"/>
<path d="M123.284 165.987C120.953 166.605 118.51 166.67 116.149 166.178C113.788 165.686 111.575 164.65 109.684 163.153C94.7099 151.403 77.7807 128.064 68.748 111.04C59.7152 94.016 50.0026 66.9104 48.7406 47.9114C48.5583 44.8407 49.2766 41.7836 50.8073 39.1154C52.3379 36.4472 54.6144 34.2839 57.3572 32.8912L71.8013 25.2077C73.3838 24.3695 75.1159 23.8513 76.8987 23.6825C78.6814 23.5138 80.48 23.6979 82.1916 24.2243C83.9032 24.7507 85.4943 25.6091 86.8742 26.7505C88.254 27.8919 89.3955 29.2939 90.2335 30.8764L102.223 53.4899C103.826 56.7132 104.095 60.4386 102.97 63.8586C101.846 67.2786 99.4189 70.1177 96.2155 71.7604L89.8357 75.1157C89.5717 75.2538 89.3714 75.4889 89.277 75.7715C89.1826 76.0541 89.2013 76.3623 89.3292 76.6314C90.926 79.9905 93.1678 84.5231 95.6786 89.3342C95.818 89.5949 95.9036 89.881 95.9303 90.1755C95.9571 90.47 95.9244 90.7669 95.8343 91.0485C95.7442 91.3301 95.5984 91.5908 95.4057 91.815C95.2129 92.0392 94.9771 92.2225 94.7122 92.3539C94.1829 92.6222 93.5692 92.6713 93.004 92.4904C92.4388 92.3095 91.9677 91.9133 91.6925 91.3875C89.17 86.5299 86.8698 81.9626 85.2612 78.557C84.6325 77.2471 84.5406 75.7433 85.0051 74.3666C85.4696 72.9899 86.4538 71.8492 87.7476 71.188L94.1156 67.7862C96.1771 66.6417 97.7155 64.7434 98.4079 62.4894C99.1003 60.2353 98.893 57.8008 97.8295 55.6963L85.8405 33.0828C84.6992 30.9465 82.7592 29.3485 80.4438 28.6376C78.1285 27.9267 75.6259 28.1606 73.4825 29.2883L59.0264 36.9254C57.1019 37.9569 55.5116 39.5162 54.4423 41.42C53.373 43.3239 52.8692 45.4933 52.99 47.6736C54.2378 66.0322 63.773 92.4397 72.5479 109.034C81.3228 125.628 97.7954 148.34 112.267 159.672C113.984 161.025 116.06 161.845 118.238 162.031C120.415 162.217 122.6 161.761 124.521 160.719L138.977 153.082C141.115 151.951 142.719 150.021 143.44 147.713C144.162 145.405 143.943 142.906 142.83 140.759L131.027 118.098C130.467 117.036 129.702 116.094 128.777 115.328C127.852 114.562 126.785 113.986 125.636 113.634C124.488 113.281 123.282 113.159 122.086 113.274C120.89 113.389 119.729 113.739 118.669 114.303L112.29 117.659C111.021 118.349 109.533 118.519 108.141 118.134C106.749 117.748 105.562 116.837 104.829 115.592C102.25 111.293 101.195 109.481 97.7816 103.067C97.5133 102.537 97.4642 101.924 97.6451 101.358C97.826 100.793 98.2222 100.322 98.748 100.047C99.0054 99.9076 99.288 99.8209 99.5792 99.7919C99.8704 99.7628 100.164 99.7919 100.444 99.8775C100.724 99.9631 100.984 100.103 101.209 100.29C101.435 100.477 101.62 100.707 101.756 100.967C105.099 107.3 106.119 108.973 108.463 112.934C108.991 113.841 109.679 114.013 110.201 113.731L116.662 110.306C119.861 108.626 123.594 108.279 127.047 109.341C130.5 110.403 133.393 112.788 135.095 115.974L147.037 138.6C148.714 141.793 149.058 145.52 147.993 148.966C146.929 152.411 144.542 155.295 141.357 156.985L126.901 164.622C125.752 165.217 124.539 165.675 123.284 165.987Z" fill="#FF760A" style="fill:#FF760A;fill:color(display-p3 1.0000 0.4627 0.0392);fill-opacity:1;"/>
<path d="M77.4354 40.5708C77.1647 40.6454 76.8763 40.6228 76.6206 40.5067C76.3648 40.3907 76.1578 40.1887 76.0356 39.9358L70.1002 28.8617C70.0186 28.7131 69.9681 28.5494 69.9518 28.3807C69.9355 28.212 69.9537 28.0417 70.0054 27.8802C70.0571 27.7188 70.1411 27.5695 70.2523 27.4416C70.3636 27.3137 70.4997 27.2097 70.6524 27.1361C70.9552 26.9846 71.3052 26.9575 71.6277 27.0607C71.9501 27.1639 72.2194 27.3892 72.378 27.6883L78.3141 38.9604C78.3955 39.1056 78.447 39.2657 78.4656 39.4311C78.4842 39.5966 78.4695 39.7641 78.4224 39.9238C78.3753 40.0835 78.2967 40.2321 78.1912 40.361C78.0858 40.4898 77.9557 40.5963 77.8085 40.6741L77.4354 40.5708Z" fill="#FF760A" style="fill:#FF760A;fill:color(display-p3 1.0000 0.4627 0.0392);fill-opacity:1;"/>
<path d="M128.163 94.3567C127.854 94.4351 127.527 94.3878 127.253 94.2251C126.98 94.0623 126.782 93.7976 126.704 93.4891C126.637 93.2252 126.658 92.9468 126.765 92.6962C126.871 92.4456 127.056 92.2366 127.292 92.1011C128.646 91.5359 129.868 90.6961 130.88 89.6348C131.893 88.5735 132.675 87.3137 133.176 85.935C133.677 84.5563 133.887 83.0887 133.792 81.6247C133.698 80.1608 133.3 78.7324 132.626 77.4298C131.951 76.1272 131.014 74.9786 129.873 74.0566C128.732 73.1346 127.412 72.4593 125.996 72.0732C124.581 71.6871 123.101 71.5987 121.65 71.8136C120.199 72.0284 118.808 72.5419 117.565 73.3214C117.282 73.4704 116.952 73.5045 116.644 73.4168C116.335 73.3292 116.073 73.1264 115.91 72.8505C115.761 72.5601 115.732 72.223 115.829 71.9114C115.926 71.5998 116.14 71.3384 116.427 71.1833C119.463 69.77 122.925 69.5766 126.099 70.6431C129.273 71.7096 131.916 73.9544 133.482 76.9139C135.048 79.8734 135.418 83.3214 134.514 86.5455C133.611 89.7697 131.504 92.5236 128.628 94.2385L128.163 94.3567Z" fill="#FF760A" style="fill:#FF760A;fill:color(display-p3 1.0000 0.4627 0.0392);fill-opacity:1;"/>
<path d="M134.956 101.048C134.647 101.126 134.32 101.079 134.047 100.916C133.773 100.754 133.575 100.489 133.497 100.18C133.43 99.9164 133.452 99.638 133.558 99.3874C133.664 99.1368 133.849 98.9278 134.085 98.7923C137.534 96.9746 140.366 94.1737 142.221 90.7448C144.076 87.3158 144.871 83.4132 144.506 79.5317C144.14 75.6503 142.63 71.9648 140.167 68.9426C137.704 65.9205 134.399 63.6977 130.672 62.5561C128.204 61.7799 125.606 61.5027 123.03 61.7407C120.454 61.9786 117.951 62.727 115.667 63.9422C115.531 64.0211 115.38 64.0712 115.224 64.0896C115.068 64.1079 114.909 64.094 114.758 64.0488C114.608 64.0036 114.468 63.9279 114.347 63.8266C114.227 63.7252 114.129 63.6002 114.058 63.4594C113.978 63.3203 113.927 63.1666 113.907 63.0074C113.888 62.8481 113.9 62.6865 113.944 62.5322C113.988 62.3779 114.063 62.2339 114.163 62.1089C114.264 61.9838 114.388 61.8801 114.529 61.804C119.743 59.0536 125.835 58.4867 131.466 60.2281C137.097 61.9695 141.806 65.8766 144.556 71.0897C147.307 76.3029 147.874 82.3952 146.132 88.0263C144.391 93.6574 140.484 98.3661 135.27 101.117L134.956 101.048Z" fill="#FF760A" style="fill:#FF760A;fill:color(display-p3 1.0000 0.4627 0.0392);fill-opacity:1;"/>
<path d="M144.486 108.734C144.187 108.85 143.854 108.842 143.561 108.712C143.268 108.582 143.038 108.341 142.923 108.042C142.807 107.743 142.815 107.41 142.945 107.117C143.075 106.824 143.316 106.594 143.615 106.479C147.211 104.589 150.399 102.01 152.997 98.8883C155.596 95.7667 157.554 92.1638 158.76 88.2853C159.967 84.4068 160.397 80.3288 160.027 76.284C159.657 72.2392 158.494 68.3068 156.605 64.7114C154.715 61.1161 152.136 57.9281 149.014 55.3295C145.893 52.7309 142.29 50.7726 138.411 49.5664C134.533 48.3602 130.455 47.9298 126.41 48.2997C122.365 48.6695 118.433 49.8324 114.837 51.722C114.554 51.8729 114.222 51.905 113.915 51.8112C113.608 51.7174 113.35 51.5054 113.199 51.2219C113.049 50.9383 113.016 50.6065 113.11 50.2993C113.204 49.9921 113.416 49.7347 113.7 49.5839C117.604 46.8829 122.037 45.0398 126.705 44.1761C131.374 43.3124 136.172 43.4476 140.785 44.5729C145.397 45.6981 149.719 47.7878 153.465 50.7044C157.211 53.621 160.297 57.2982 162.519 61.4938C164.741 65.6894 166.049 70.3082 166.357 75.0459C166.664 79.7836 165.964 84.5328 164.304 88.9805C162.643 93.4282 160.058 97.4735 156.72 100.85C153.383 104.226 149.368 106.857 144.939 108.57L144.474 108.688L144.486 108.734Z" fill="#FF760A" style="fill:#FF760A;fill:color(display-p3 1.0000 0.4627 0.0392);fill-opacity:1;"/>
<path d="M68.1703 83.8444C67.8775 83.9198 67.567 83.8819 67.3009 83.7383C67.0348 83.5947 66.8327 83.356 66.735 83.0698C62.3208 71.6155 59.3635 59.6519 57.9324 47.4602C57.902 47.1475 57.9954 46.8353 58.1926 46.5907C58.3897 46.3461 58.6749 46.1886 58.987 46.1519C59.3032 46.1318 59.6145 46.2374 59.8531 46.4459C60.0917 46.6544 60.2382 46.9488 60.2606 47.2648C61.7456 59.2394 64.7295 70.9798 69.1421 82.2104C69.245 82.5051 69.2289 82.8283 69.0974 83.1115C68.9659 83.3946 68.7293 83.6154 68.4377 83.7269L68.1703 83.8444Z" fill="#FF760A" style="fill:#FF760A;fill:color(display-p3 1.0000 0.4627 0.0392);fill-opacity:1;"/>
<path d="M73.8232 97.7087C73.5458 97.7648 73.2576 97.7285 73.0027 97.6055C72.7478 97.4824 72.5402 97.2793 72.4115 97.0271C71.683 95.3299 70.9307 93.5396 70.1785 91.7492C70.1073 91.4692 70.1395 91.1729 70.2692 90.9147C70.3989 90.6566 70.6174 90.4538 70.8846 90.3438C71.1517 90.2337 71.4496 90.2237 71.7235 90.3156C71.9974 90.4075 72.229 90.5951 72.3758 90.844C73.128 92.6344 73.8684 94.3781 74.6435 96.0636C74.7089 96.2098 74.7443 96.3677 74.7477 96.5279C74.7512 96.6881 74.7225 96.8473 74.6634 96.9962C74.6042 97.1451 74.5159 97.2807 74.4036 97.3949C74.2913 97.5092 74.1572 97.5997 74.0093 97.6614L73.8232 97.7087Z" fill="#FF760A" style="fill:#FF760A;fill:color(display-p3 1.0000 0.4627 0.0392);fill-opacity:1;"/>
<path d="M126.967 163.57C126.691 163.648 126.397 163.629 126.133 163.516C125.87 163.402 125.654 163.201 125.521 162.947L119.526 151.64C119.448 151.485 119.401 151.315 119.388 151.141C119.375 150.967 119.396 150.793 119.45 150.627C119.505 150.461 119.591 150.308 119.705 150.176C119.819 150.044 119.958 149.935 120.113 149.857C120.269 149.778 120.439 149.731 120.612 149.718C120.786 149.705 120.961 149.726 121.127 149.781C121.292 149.835 121.446 149.922 121.578 150.035C121.71 150.149 121.819 150.288 121.897 150.443L127.88 161.704C128.031 162.006 128.058 162.356 127.955 162.679C127.852 163.001 127.627 163.271 127.328 163.429L126.967 163.57Z" fill="#FF760A" style="fill:#FF760A;fill:color(display-p3 1.0000 0.4627 0.0392);fill-opacity:1;"/>
<path d="M77.4354 40.5708C77.1647 40.6454 76.8763 40.6228 76.6206 40.5067C76.3648 40.3907 76.1578 40.1887 76.0356 39.9358L70.1002 28.8617C70.0186 28.7131 69.9681 28.5494 69.9518 28.3807C69.9355 28.212 69.9537 28.0417 70.0054 27.8802C70.0571 27.7188 70.1411 27.5695 70.2523 27.4416C70.3636 27.3137 70.4997 27.2097 70.6524 27.1361C70.9552 26.9846 71.3052 26.9575 71.6277 27.0607C71.9501 27.1639 72.2194 27.3892 72.378 27.6883L78.3141 38.9604C78.3955 39.1056 78.447 39.2657 78.4656 39.4311C78.4842 39.5966 78.4695 39.7641 78.4224 39.9238C78.3753 40.0835 78.2967 40.2321 78.1912 40.361C78.0858 40.4898 77.9557 40.5963 77.8085 40.6741L77.4354 40.5708Z" fill="#FF760A" style="fill:#FF760A;fill:color(display-p3 1.0000 0.4627 0.0392);fill-opacity:1;"/>
<path d="M128.163 94.3567C127.854 94.4351 127.527 94.3878 127.253 94.2251C126.98 94.0623 126.782 93.7976 126.704 93.4891C126.637 93.2252 126.658 92.9468 126.765 92.6962C126.871 92.4456 127.056 92.2366 127.292 92.1011C128.646 91.5359 129.868 90.6961 130.88 89.6348C131.893 88.5735 132.675 87.3137 133.176 85.935C133.677 84.5563 133.887 83.0887 133.792 81.6247C133.698 80.1608 133.3 78.7324 132.626 77.4298C131.951 76.1272 131.014 74.9786 129.873 74.0566C128.732 73.1346 127.412 72.4593 125.996 72.0732C124.581 71.6871 123.101 71.5987 121.65 71.8136C120.199 72.0284 118.808 72.5419 117.565 73.3214C117.282 73.4704 116.952 73.5045 116.644 73.4168C116.335 73.3292 116.073 73.1264 115.91 72.8505C115.761 72.5601 115.732 72.223 115.829 71.9114C115.926 71.5998 116.14 71.3384 116.427 71.1833C119.463 69.77 122.925 69.5766 126.099 70.6431C129.273 71.7096 131.916 73.9544 133.482 76.9139C135.048 79.8734 135.418 83.3214 134.514 86.5455C133.611 89.7697 131.504 92.5236 128.628 94.2385L128.163 94.3567Z" fill="#FF760A" style="fill:#FF760A;fill:color(display-p3 1.0000 0.4627 0.0392);fill-opacity:1;"/>
<path d="M134.956 101.048C134.647 101.126 134.32 101.079 134.047 100.916C133.773 100.754 133.575 100.489 133.497 100.18C133.43 99.9164 133.452 99.638 133.558 99.3874C133.664 99.1368 133.849 98.9278 134.085 98.7923C137.534 96.9746 140.366 94.1737 142.221 90.7448C144.076 87.3158 144.871 83.4132 144.506 79.5317C144.14 75.6503 142.63 71.9648 140.167 68.9426C137.704 65.9205 134.399 63.6977 130.672 62.5561C128.204 61.7799 125.606 61.5027 123.03 61.7407C120.454 61.9786 117.951 62.727 115.667 63.9422C115.531 64.0211 115.38 64.0712 115.224 64.0896C115.068 64.1079 114.909 64.094 114.758 64.0488C114.608 64.0036 114.468 63.9279 114.347 63.8266C114.227 63.7252 114.129 63.6002 114.058 63.4594C113.978 63.3203 113.927 63.1666 113.907 63.0074C113.888 62.8481 113.9 62.6865 113.944 62.5322C113.988 62.3779 114.063 62.2339 114.163 62.1089C114.264 61.9838 114.388 61.8801 114.529 61.804C119.743 59.0536 125.835 58.4867 131.466 60.2281C137.097 61.9695 141.806 65.8766 144.556 71.0897C147.307 76.3029 147.874 82.3952 146.132 88.0263C144.391 93.6574 140.484 98.3661 135.27 101.117L134.956 101.048Z" fill="#FF760A" style="fill:#FF760A;fill:color(display-p3 1.0000 0.4627 0.0392);fill-opacity:1;"/>
<path d="M144.486 108.734C144.187 108.85 143.854 108.842 143.561 108.712C143.268 108.582 143.038 108.341 142.923 108.042C142.807 107.743 142.815 107.41 142.945 107.117C143.075 106.824 143.316 106.594 143.615 106.479C147.211 104.589 150.399 102.01 152.997 98.8883C155.596 95.7667 157.554 92.1638 158.76 88.2853C159.967 84.4068 160.397 80.3288 160.027 76.284C159.657 72.2392 158.494 68.3068 156.605 64.7114C154.715 61.1161 152.136 57.9281 149.014 55.3295C145.893 52.7309 142.29 50.7726 138.411 49.5664C134.533 48.3602 130.455 47.9298 126.41 48.2997C122.365 48.6695 118.433 49.8324 114.837 51.722C114.554 51.8729 114.222 51.905 113.915 51.8112C113.608 51.7174 113.35 51.5054 113.199 51.2219C113.049 50.9383 113.016 50.6065 113.11 50.2993C113.204 49.9921 113.416 49.7347 113.7 49.5839C117.604 46.8829 122.037 45.0398 126.705 44.1761C131.374 43.3124 136.172 43.4476 140.785 44.5729C145.397 45.6981 149.719 47.7878 153.465 50.7044C157.211 53.621 160.297 57.2982 162.519 61.4938C164.741 65.6894 166.049 70.3082 166.357 75.0459C166.664 79.7836 165.964 84.5328 164.304 88.9805C162.643 93.4282 160.058 97.4735 156.72 100.85C153.383 104.226 149.368 106.857 144.939 108.57L144.474 108.688L144.486 108.734Z" fill="#FF760A" style="fill:#FF760A;fill:color(display-p3 1.0000 0.4627 0.0392);fill-opacity:1;"/>
<path d="M132.155 32.701C133.234 32.4267 133.887 31.3294 133.612 30.25C133.338 29.1706 132.241 28.518 131.161 28.7924C130.082 29.0667 129.429 30.1641 129.704 31.2434C129.978 32.3228 131.075 32.9754 132.155 32.701Z" fill="white" style="fill:white;fill-opacity:1;"/>
<path d="M109.088 105.488C110.168 105.214 110.82 104.116 110.546 103.037C110.272 101.958 109.174 101.305 108.095 101.579C107.016 101.854 106.363 102.951 106.637 104.031C106.912 105.11 108.009 105.762 109.088 105.488Z" fill="white" style="fill:white;fill-opacity:1;"/>
<path d="M94.5884 193.785C95.6677 193.511 96.3203 192.413 96.046 191.334C95.7717 190.255 94.6743 189.602 93.595 189.876C92.5156 190.151 91.863 191.248 92.1373 192.327C92.4117 193.407 93.509 194.059 94.5884 193.785Z" fill="white" style="fill:white;fill-opacity:1;"/>
<path d="M34.3149 62.4745C35.3943 62.2002 36.0469 61.1028 35.7726 60.0234C35.4983 58.9441 34.4009 58.2915 33.3215 58.5658C32.2422 58.8401 31.5896 59.9375 31.8639 61.0168C32.1382 62.0962 33.2356 62.7488 34.3149 62.4745Z" fill="white" style="fill:white;fill-opacity:1;"/>
<path d="M164.1 144.166C166.002 143.683 167.151 141.749 166.668 139.847C166.185 137.946 164.251 136.796 162.35 137.279C160.448 137.762 159.298 139.696 159.781 141.598C160.265 143.499 162.198 144.649 164.1 144.166Z" fill="white" style="fill:white;fill-opacity:1;"/>
<path d="M20.4432 96.4112C24.0153 95.5033 26.1751 91.8716 25.2673 88.2994C24.3594 84.7272 20.7276 82.5674 17.1555 83.4753C13.5833 84.3832 11.4235 88.0149 12.3314 91.5871C13.2392 95.1593 16.871 97.3191 20.4432 96.4112Z" fill="white" style="fill:white;fill-opacity:1;"/>
<path d="M185.323 76.994C187.224 76.5107 188.374 74.5772 187.891 72.6755C187.407 70.7738 185.474 69.624 183.572 70.1073C181.671 70.5906 180.521 72.5241 181.004 74.4258C181.487 76.3275 183.421 77.4774 185.323 76.994Z" fill="white" style="fill:white;fill-opacity:1;"/>
<path d="M60.0335 178.142C61.9352 177.659 63.0851 175.726 62.6017 173.824C62.1184 171.922 60.1849 170.772 58.2832 171.256C56.3815 171.739 55.2317 173.673 55.715 175.574C56.1983 177.476 58.1318 178.626 60.0335 178.142Z" fill="white" style="fill:white;fill-opacity:1;"/>
</g>
</svg>
