<svg width="90" height="135" viewBox="0 0 90 135" fill="none" xmlns="http://www.w3.org/2000/svg">
<g opacity="0.1">
<path d="M27.5232 11.6283C26.6363 11.6283 25.7693 11.3654 25.0319 10.8726C24.2945 10.3799 23.7198 9.6796 23.3804 8.86024C23.041 8.04088 22.9522 7.13928 23.1252 6.26945C23.2982 5.39962 23.7253 4.60063 24.3524 3.97352C24.9795 3.34641 25.7785 2.91934 26.6484 2.74632C27.5182 2.5733 28.4198 2.6621 29.2392 3.00149C30.0585 3.34088 30.7588 3.91562 31.2516 4.65302C31.7443 5.39043 32.0073 6.25738 32.0073 7.14425C32.0058 8.33305 31.5329 9.47273 30.6922 10.3133C29.8516 11.1539 28.712 11.6269 27.5232 11.6283ZM27.5232 6.05506C27.3077 6.05506 27.0972 6.11894 26.918 6.23862C26.7389 6.3583 26.5993 6.52841 26.5169 6.72744C26.4344 6.92646 26.4129 7.14546 26.4549 7.35675C26.4969 7.56803 26.6007 7.76211 26.753 7.91443C26.9053 8.06676 27.0994 8.1705 27.3107 8.21252C27.522 8.25455 27.741 8.23298 27.94 8.15054C28.139 8.0681 28.3091 7.9285 28.4288 7.74938C28.5485 7.57026 28.6124 7.35968 28.6124 7.14425C28.6124 7.00122 28.5842 6.85958 28.5294 6.72744C28.4747 6.59529 28.3945 6.47522 28.2933 6.37408C28.1922 6.27293 28.0721 6.1927 27.94 6.13797C27.8078 6.08323 27.6662 6.05506 27.5232 6.05506Z" fill="#E7F6FF" style="fill:#E7F6FF;fill:color(display-p3 0.9059 0.9647 1.0000);fill-opacity:1;"/>
<path d="M35.5261 11.7182C36.3948 11.7182 37.0991 11.014 37.0991 10.1452C37.0991 9.27651 36.3948 8.57227 35.5261 8.57227C34.6574 8.57227 33.9531 9.27651 33.9531 10.1452C33.9531 11.014 34.6574 11.7182 35.5261 11.7182Z" fill="#E7F6FF" style="fill:#E7F6FF;fill:color(display-p3 0.9059 0.9647 1.0000);fill-opacity:1;"/>
<path opacity="0.5" d="M58.3211 92.1973V95.6516C57.3224 98.8286 55.7522 102.546 53.6898 106.645C52.8411 108.272 51.933 109.989 50.9598 111.755C51.6246 110.623 52.264 109.517 52.8807 108.414C52.1621 109.777 51.4011 111.195 50.5977 112.635V107.259L50.8353 106.809L50.5977 107.234V107.036C50.956 106.359 51.3049 105.699 51.6444 105.055C53.8822 100.602 55.5429 96.605 56.5218 93.2553C57.13 92.913 57.7298 92.5594 58.3211 92.1973Z" fill="#BBD2E5" style="fill:#BBD2E5;fill:color(display-p3 0.7333 0.8235 0.8980);fill-opacity:1;"/>
<path d="M73.1864 42.0288C73.1525 57.7302 60.2802 70.5403 44.5844 70.5063C30.9907 70.478 19.5555 60.8195 16.7632 48.0321C16.4748 46.3891 16.3318 44.7239 16.336 43.0557C16.37 27.3628 29.2423 14.5442 44.9352 14.5782C58.5148 14.6065 69.9302 24.2395 72.7479 36.993C72.7469 36.9996 72.7469 37.0063 72.7479 37.0128C73.0426 38.6685 73.1894 40.3471 73.1864 42.0288Z" fill="white" style="fill:white;fill-opacity:1;"/>
<path d="M44.8892 1.76772C18.491 1.71114 2.04559 18.3235 1.98052 44.484C1.96354 52.5696 6.22414 65.1816 13.5571 80.4134C16.8728 86.8439 20.9127 93.993 25.1564 101.131C30.3675 109.941 36.0568 118.753 41.7489 126.85L44.595 130.664C45.5484 129.473 46.5018 128.287 47.4552 126.861C53.1841 118.552 58.9073 110 64.1468 101.216C68.4442 94.0892 72.2663 86.9627 75.6074 80.5492C83.2459 65.3457 87.5603 52.7506 87.5773 44.6651C87.6593 19.2203 70.5745 1.8243 44.8892 1.76772ZM44.7393 70.7266C29.0435 70.6927 16.2278 57.826 16.2617 42.1274C16.2957 26.4288 29.168 13.6244 44.8638 13.6584C60.5595 13.6923 73.3753 26.5618 73.3413 42.2575C73.3074 57.9533 60.435 70.769 44.7393 70.7266Z" fill="#FFDECC" style="fill:#FFDECC;fill:color(display-p3 1.0000 0.8706 0.8000);fill-opacity:1;"/>
<path d="M73.9892 84.349C71.0526 89.9138 67.7793 95.9029 64.1666 101.889C58.9186 110.674 53.1926 119.226 47.475 127.535C46.5216 128.949 45.5682 130.146 44.612 131.337L41.7574 127.526C36.0653 119.43 30.376 110.617 25.179 101.81C20.9099 94.6638 16.8841 87.5204 13.5798 81.0927C6.22414 65.8553 1.96354 53.2404 1.98052 45.1549C2.00315 34.3591 4.8096 25.1929 9.96985 18.1484C7.93008 23.4615 6.85786 29.5129 6.83523 36.1838C6.81825 44.2694 11.0788 56.8842 18.4118 72.1132C21.7275 78.5409 25.7533 85.6928 30.0111 92.8306C35.2222 101.637 40.9115 110.45 46.6008 118.547L49.4469 122.361C50.4031 121.169 51.3565 119.984 52.3099 118.558C58.036 110.249 63.762 101.697 69.0015 92.9126C70.7555 90.0496 72.4105 87.1752 73.9892 84.349Z" fill="#FF5C00" fill-opacity="0.2" style="fill:#FF5C00;fill:color(display-p3 1.0000 0.3608 0.0000);fill-opacity:0.2;"/>
<path d="M44.5468 134.118L40.1391 128.208C34.43 120.089 28.6643 111.152 23.4616 102.359C19.0058 94.8988 14.9744 87.6959 11.7973 81.5398L11.7747 81.4917C3.94379 65.2415 -0.0169202 52.8586 5.43291e-05 44.6995C0.0283452 31.2925 4.24368 20.0242 12.1651 12.1056C20.0865 4.18704 31.3463 0 44.7477 0H44.8863C57.9991 0.0282908 69.2164 4.35679 77.2991 12.513C85.3818 20.6693 89.6056 31.8357 89.5801 44.8834C89.5632 53.1245 85.3365 65.8412 77.4009 81.6615V81.6869C74.4191 87.4102 70.4159 94.9412 65.8809 102.464C60.2623 111.868 54.2505 120.757 49.1129 128.208C48.1369 129.665 47.1524 130.893 46.2018 132.081L44.5468 134.118ZM43.3614 125.914L44.643 127.631C45.0362 127.111 45.4266 126.568 45.817 125.985C50.9235 118.539 56.9042 109.729 62.4662 100.418C66.9475 92.992 70.9082 85.5345 73.8646 79.865C81.537 64.6049 85.5996 52.5078 85.6166 44.8777C85.6703 20.4571 69.2956 4.01447 44.8778 3.96072H44.7477C19.6395 3.96072 4.01452 19.5603 3.96077 44.6995C3.9438 52.1541 7.87622 64.2711 15.3309 79.7462C18.4655 85.8259 22.4545 92.9439 26.8763 100.333C32.0168 109.036 37.7174 117.877 43.3614 125.894V125.914ZM44.7957 72.9366H44.7279C36.6315 72.928 28.8702 69.7034 23.1514 63.9724C17.4325 58.2413 14.2245 50.4732 14.2332 42.3768C14.2418 34.2805 17.4663 26.5192 23.1974 20.8004C28.9285 15.0815 36.6966 11.8735 44.7929 11.8821H44.8608C50.8973 11.8886 56.796 13.6869 61.8093 17.0492C66.8227 20.4116 70.725 25.1866 73.0218 30.769C75.3185 36.3515 75.9062 42.4902 74.7105 48.407C73.5148 54.3239 70.5895 59.7526 66.3053 64.0052C63.4854 66.8373 60.1333 69.0837 56.4418 70.6151C52.7503 72.1465 48.7923 72.9326 44.7957 72.9281V72.9366ZM44.7957 15.8598C37.7993 15.9242 31.1108 18.7468 26.1835 23.7143C21.2562 28.6819 18.4881 35.3931 18.4807 42.3899C18.4732 49.3866 21.227 56.1037 26.1437 61.0817C31.0604 66.0598 37.7428 68.8966 44.7392 68.9759H44.7986C51.8445 68.983 58.6046 66.1909 63.5918 61.2137C68.579 56.2366 71.3848 49.4821 71.392 42.4362C71.3991 35.3904 68.607 28.6302 63.6298 23.643C58.6527 18.6558 51.8982 15.85 44.8523 15.8429L44.7957 15.8598Z" fill="#FF760A" style="fill:#FF760A;fill:color(display-p3 1.0000 0.4627 0.0392);fill-opacity:1;"/>
<path d="M78.9843 28.1372C79.8053 30.1335 80.4454 32.1995 80.8968 34.3103C80.993 34.7969 81.0665 35.275 81.1458 35.7248C81.225 36.1747 81.3127 36.6358 81.341 37.0743L81.457 38.3417C81.4881 38.7491 81.5362 39.1367 81.5305 39.5101C81.5305 40.257 81.5447 40.9247 81.5305 41.5216C81.5164 42.1186 81.4456 42.6221 81.3947 43.0352C81.2872 43.8641 81.1542 44.3168 81.0071 44.3168C80.86 44.3168 80.7044 43.8641 80.5517 43.0578C80.4724 42.6533 80.413 42.161 80.3197 41.5923C80.2263 41.0237 80.1075 40.3787 80 39.6686C79.9547 39.3121 79.8642 38.9443 79.7906 38.5596L79.5586 37.3629C79.4936 36.947 79.3634 36.5283 79.2757 36.0926C79.188 35.6569 79.072 35.2071 78.9532 34.7516C78.4167 32.7829 77.7601 30.8489 76.987 28.9605C76.1836 27.0862 75.2575 25.2669 74.2145 23.5145L73.4931 22.3489L72.7688 21.2654C72.5425 20.9089 72.302 20.5836 72.0729 20.2667C71.8437 19.9499 71.6316 19.6387 71.4165 19.3501C69.6936 17.0472 68.5054 15.6723 68.7204 15.4375C68.9354 15.2027 70.4829 16.2183 72.5821 18.3571C72.8452 18.623 73.1027 18.9229 73.3771 19.22C73.6515 19.517 73.9429 19.8395 74.206 20.1875C74.4691 20.5355 74.7718 20.8863 75.0547 21.2597L75.9035 22.4451C77.1074 24.2412 78.1389 26.1471 78.9843 28.1372Z" fill="white" style="fill:white;fill-opacity:1;"/>
<path d="M62.0122 9.14871C63.8964 10.2407 65.0224 11.6807 64.6716 12.1532C64.3208 12.6257 62.6912 12.0429 60.923 11.0216C59.1548 10.0003 57.8535 8.9139 58.0657 8.36505C58.2778 7.81621 60.1337 8.05103 62.0122 9.14871Z" fill="white" style="fill:white;fill-opacity:1;"/>
</g>
</svg>
