<svg width="173" height="14" viewBox="0 0 173 14" fill="none" xmlns="http://www.w3.org/2000/svg">
<path d="M0.27 0.399999H9.45V2.38H5.904V13H3.834V2.38H0.27V0.399999ZM19.4507 5.566V0.399999H21.5207V13H19.4507V7.546H14.0507V13H11.9807V0.399999H14.0507V5.566H19.4507ZM27.1093 7.618V11.02H32.6893V13H25.0393V0.399999H32.5993V2.38H27.1093V5.656H32.1493V7.618H27.1093ZM48.6442 8.95V0.399999H50.7142V13H49.0942L43.1542 4.45V13H41.0842V0.399999H42.7042L48.6442 8.95ZM64.7607 11.344C63.5007 12.604 61.9587 13.234 60.1347 13.234C58.3107 13.234 56.7627 12.604 55.4907 11.344C54.2307 10.072 53.6007 8.524 53.6007 6.7C53.6007 4.876 54.2307 3.334 55.4907 2.074C56.7627 0.801999 58.3107 0.165999 60.1347 0.165999C61.9587 0.165999 63.5007 0.801999 64.7607 2.074C66.0327 3.334 66.6687 4.876 66.6687 6.7C66.6687 8.524 66.0327 10.072 64.7607 11.344ZM56.9487 9.94C57.8247 10.792 58.8867 11.218 60.1347 11.218C61.3947 11.218 62.4507 10.792 63.3027 9.94C64.1667 9.076 64.5987 7.996 64.5987 6.7C64.5987 5.404 64.1667 4.33 63.3027 3.478C62.4507 2.614 61.3947 2.182 60.1347 2.182C58.8747 2.182 57.8127 2.614 56.9487 3.478C56.0967 4.33 55.6707 5.404 55.6707 6.7C55.6707 7.984 56.0967 9.064 56.9487 9.94ZM69.3254 8.824V0.399999H71.3954V8.698C71.3954 9.478 71.6234 10.096 72.0794 10.552C72.5474 10.996 73.2194 11.218 74.0954 11.218C74.9714 11.218 75.6374 10.996 76.0934 10.552C76.5614 10.096 76.7954 9.478 76.7954 8.698V0.399999H78.8654V8.824C78.8654 10.156 78.4214 11.23 77.5334 12.046C76.6574 12.838 75.5114 13.234 74.0954 13.234C72.6794 13.234 71.5334 12.838 70.6574 12.046C69.7694 11.23 69.3254 10.156 69.3254 8.824ZM88.2043 6.484H94.5043V7.348C94.5043 9.076 93.9343 10.492 92.7943 11.596C91.6663 12.688 90.1783 13.234 88.3303 13.234C86.3863 13.234 84.7783 12.604 83.5063 11.344C82.2463 10.084 81.6163 8.536 81.6163 6.7C81.6163 4.876 82.2463 3.334 83.5063 2.074C84.7783 0.801999 86.3503 0.165999 88.2223 0.165999C89.3863 0.165999 90.4543 0.435999 91.4263 0.975999C92.4103 1.504 93.1723 2.23 93.7123 3.154L91.9303 4.18C91.5943 3.568 91.0963 3.082 90.4363 2.722C89.7763 2.362 89.0383 2.182 88.2223 2.182C86.9023 2.182 85.8163 2.614 84.9643 3.478C84.1123 4.354 83.6863 5.434 83.6863 6.718C83.6863 8.014 84.1123 9.088 84.9643 9.94C85.8403 10.792 86.9683 11.218 88.3483 11.218C89.4523 11.218 90.3583 10.96 91.0663 10.444C91.7743 9.928 92.2243 9.226 92.4163 8.338H88.2043V6.484ZM104.867 5.566V0.399999H106.937V13H104.867V7.546H99.4667V13H97.3967V0.399999H99.4667V5.566H104.867ZM109.465 0.399999H118.645V2.38H115.099V13H113.029V2.38H109.465V0.399999ZM128.502 0.399999H130.86L126.468 7.996V13H124.398V7.996L120.006 0.399999H122.364L125.442 5.98L128.502 0.399999ZM146.095 0.399999V2.38H140.785V5.908H145.915V7.888H140.785V13H138.715V0.399999H146.095ZM159.561 11.344C158.301 12.604 156.759 13.234 154.935 13.234C153.111 13.234 151.563 12.604 150.291 11.344C149.031 10.072 148.401 8.524 148.401 6.7C148.401 4.876 149.031 3.334 150.291 2.074C151.563 0.801999 153.111 0.165999 154.935 0.165999C156.759 0.165999 158.301 0.801999 159.561 2.074C160.833 3.334 161.469 4.876 161.469 6.7C161.469 8.524 160.833 10.072 159.561 11.344ZM151.749 9.94C152.625 10.792 153.687 11.218 154.935 11.218C156.195 11.218 157.251 10.792 158.103 9.94C158.967 9.076 159.399 7.996 159.399 6.7C159.399 5.404 158.967 4.33 158.103 3.478C157.251 2.614 156.195 2.182 154.935 2.182C153.675 2.182 152.613 2.614 151.749 3.478C150.897 4.33 150.471 5.404 150.471 6.7C150.471 7.984 150.897 9.064 151.749 9.94ZM169.053 6.52L172.995 13H170.637L167.865 8.446L165.093 13H162.735L166.695 6.52L162.969 0.399999H165.309L167.865 4.594L170.421 0.399999H172.779L169.053 6.52Z" fill="#FF5C00" style="fill:#FF5C00;fill:color(display-p3 1.0000 0.3600 0.0000);fill-opacity:1;"/>
</svg>
