<svg width="42" height="42" viewBox="0 0 42 42" fill="none" xmlns="http://www.w3.org/2000/svg">
<g clip-path="url(#clip0_3001_3940)">
<path d="M16.2562 8.02063C16.0829 7.85047 15.8809 7.64578 15.7014 7.46364C14.7242 6.47318 13.2474 4.97627 11.3373 3.59369C9.00364 1.9049 6.58648 0.80638 4.15294 0.328902L2.47666 0L2.3226 1.69171C2.0114 5.10243 2.01042 8.06352 2.31966 10.7442C2.65018 13.6096 3.3335 16.2132 4.40433 18.6812C3.99944 19.656 3.46598 20.681 2.9069 21.7562C1.3103 24.8259 -0.499309 28.305 0.127144 31.9724L0.379237 33.4513L1.09224 33.3453L0.463549 35.1031L3.09247 34.614C3.74693 34.4922 4.44355 34.4305 5.16271 34.4305C7.27162 34.4305 9.50433 34.9457 11.6179 35.9214C13.8242 36.9395 15.7634 38.4042 17.2257 40.1573L17.3115 40.2604L17.4142 40.347C18.2923 41.0882 19.2783 41.7741 20.5358 41.7741C20.5647 41.7741 20.5936 41.7737 20.6226 41.773C20.6515 41.773 20.6805 41.7741 20.7092 41.7741C21.9669 41.7741 22.9527 41.0882 23.8308 40.347L23.9335 40.2604L24.0193 40.1573C25.4815 38.4043 27.4206 36.9396 29.6271 35.9216C31.7419 34.9468 33.9735 34.4305 36.0823 34.4305C36.8015 34.4305 37.4979 34.4922 38.1525 34.614L40.7814 35.1031L40.1528 33.3453L40.8652 33.4513L41.1173 31.9724C41.7438 28.305 39.9341 24.8259 38.3375 21.7562C37.7783 20.681 37.2451 19.6558 36.8402 18.6812C37.9109 16.2132 38.5943 13.6096 38.9248 10.7442C39.234 8.06352 39.2329 5.10243 38.9218 1.69171L38.7683 0L37.0921 0.328902C34.6585 0.80638 32.2414 1.9049 29.9074 3.59424C27.9976 4.97683 26.5208 6.47373 25.5436 7.46364C25.3641 7.64564 25.1623 7.85033 24.9888 8.02063H16.2562Z" fill="#FF5C00" style="fill:#FF5C00;fill:color(display-p3 1.0000 0.3600 0.0000);fill-opacity:1;"/>
<path fill-rule="evenodd" clip-rule="evenodd" d="M35.1746 18.6417C35.6942 17.5204 36.1293 16.3623 36.4764 15.1769C36.1429 15.1574 35.8175 15.067 35.5222 14.9117C35.2269 14.7565 34.9685 14.5401 34.7645 14.2772C34.5604 14.0142 34.4155 13.7108 34.3395 13.3874C34.2635 13.0639 34.2581 12.7281 34.3237 12.4024C34.3894 12.0768 34.5245 11.7689 34.7201 11.4997C34.9156 11.2304 35.1669 11.0059 35.4572 10.8415C35.7474 10.677 36.0697 10.5763 36.4024 10.5463C36.735 10.5162 37.0703 10.5575 37.3856 10.6673C37.4684 9.96925 37.5285 9.26401 37.566 8.55153C37.1903 8.5292 36.8378 8.36362 36.5819 8.0893C36.3259 7.81497 36.1863 7.45305 36.1921 7.07892C36.1979 6.70479 36.3486 6.3473 36.6129 6.08091C36.8772 5.81453 37.2346 5.65979 37.6108 5.64893C37.5862 4.40141 37.5093 3.12953 37.3906 1.83008C30.9274 3.0982 26.7187 8.74467 25.5133 9.60619C24.7603 9.51359 22.5852 9.40219 20.6266 9.35554H20.6198C18.6612 9.40261 16.4861 9.51401 15.7331 9.60619C14.5271 8.74495 10.319 3.0982 3.85574 1.83008C3.29903 7.933 3.65589 13.4301 6.07178 18.6417C4.59424 22.6644 0.865911 27.1567 1.64488 31.7165L3.40211 31.455L2.81011 33.1104C7.89526 32.1645 14.4741 34.4611 18.4109 39.1816C19.2279 39.8711 19.8774 40.277 20.6238 40.243C21.3695 40.277 22.0191 39.8711 22.8366 39.1816C26.7734 34.4611 33.3522 32.165 38.4374 33.1104L37.8454 31.455L39.6026 31.7165C40.3805 27.1567 36.6521 22.6644 35.1746 18.6417Z" fill="#1C1C1C" style="fill:#1C1C1C;fill:color(display-p3 0.1098 0.1098 0.1098);fill-opacity:1;"/>
<path fill-rule="evenodd" clip-rule="evenodd" d="M13.5291 25.9674C15.4596 26.9289 17.0408 26.2924 17.7769 24.3955C18.2545 24.4333 18.2976 24.4331 18.5976 24.4017C17.0379 23.8149 16.388 23.7791 14.0959 21.9534C13.021 20.9078 11.259 20.971 10.2838 21.2818C8.85322 21.7629 11.0148 21.3833 11.1715 21.4134C11.9083 21.751 10.9068 22.235 10.8415 23.5112C11.0197 24.8907 10.9816 24.6403 9.85991 25.2434C10.9469 24.8239 12.4349 25.4708 13.5291 25.9674Z" fill="#FF5C00" style="fill:#FF5C00;fill:color(display-p3 1.0000 0.3600 0.0000);fill-opacity:1;"/>
<path fill-rule="evenodd" clip-rule="evenodd" d="M12.686 24.9622C14.505 25.6978 15.0963 26.2267 16.1062 25.5192C16.3863 25.323 16.6944 25.1109 16.7796 24.215C14.9531 23.8957 12.69 20.2549 11.8301 23.1608C11.6734 23.6072 11.7601 23.9847 11.8301 24.447C11.871 24.7142 11.9328 24.7528 12.686 24.9622Z" fill="white" style="fill:white;fill-opacity:1;"/>
<path fill-rule="evenodd" clip-rule="evenodd" d="M26.3294 26.0492C26.7407 26.0352 27.1934 25.9191 27.4979 25.7679C28.3306 25.3547 28.5623 24.8367 29.2153 24.3881C32.4896 22.5 34.008 25.1275 34.2177 25.553C33.9317 23.8729 33.1761 23.7723 32.7292 23.3397C31.8652 22.7326 32.4264 22.3412 32.2895 21.09C32.2722 20.9331 32.2217 20.6407 32.3183 20.4541C32.7148 20.2612 32.7437 20.699 33.0711 20.844C32.2168 18.4311 29.7734 18.7781 28.1679 19.5168C25.8653 20.5762 24.8174 23.2726 21.8633 24.5353C22.2974 24.5655 22.5775 24.3848 22.8641 24.38C23.6861 25.4801 24.9527 26.0969 26.3295 26.0497L26.3294 26.0492Z" fill="#FF5C00" style="fill:#FF5C00;fill:color(display-p3 1.0000 0.3600 0.0000);fill-opacity:1;"/>
<path fill-rule="evenodd" clip-rule="evenodd" d="M30.5033 20.3706C26.939 20.0921 26.2388 22.6562 23.8984 24.0765C24.1063 24.4751 24.6351 24.8503 25.1499 25.0651C28.3151 26.3547 27.7396 23.3161 31.1194 23.2624C31.2496 22.6963 31.5516 20.2653 30.5033 20.3706Z" fill="white" style="fill:white;fill-opacity:1;"/>
</g>
<defs>
<clipPath id="clip0_3001_3940">
<rect width="41.2453" height="41.7741" fill="white" style="fill:white;fill-opacity:1;"/>
</clipPath>
</defs>
</svg>
