<svg width="176" height="67" viewBox="0 0 176 67" fill="none" xmlns="http://www.w3.org/2000/svg">
<g clip-path="url(#clip0_362_1688)">
<path d="M83.2562 8.02063C83.0829 7.85047 82.8809 7.64578 82.7014 7.46364C81.7242 6.47318 80.2474 4.97627 78.3373 3.59369C76.0036 1.9049 73.5865 0.80638 71.1529 0.328902L69.4767 0L69.3226 1.69171C69.0114 5.10243 69.0104 8.06352 69.3197 10.7442C69.6502 13.6096 70.3335 16.2132 71.4043 18.6812C70.9994 19.656 70.466 20.681 69.9069 21.7562C68.3103 24.8259 66.5007 28.305 67.1271 31.9724L67.3792 33.4513L68.0922 33.3453L67.4635 35.1031L70.0925 34.614C70.7469 34.4922 71.4435 34.4305 72.1627 34.4305C74.2716 34.4305 76.5043 34.9457 78.6179 35.9214C80.8242 36.9395 82.7634 38.4042 84.2257 40.1573L84.3115 40.2604L84.4142 40.347C85.2923 41.0882 86.2783 41.7741 87.5358 41.7741C87.5647 41.7741 87.5936 41.7737 87.6226 41.773C87.6515 41.773 87.6805 41.7741 87.7092 41.7741C88.9669 41.7741 89.9527 41.0882 90.8308 40.347L90.9335 40.2604L91.0193 40.1573C92.4815 38.4043 94.4206 36.9396 96.6271 35.9216C98.7419 34.9468 100.974 34.4305 103.082 34.4305C103.801 34.4305 104.498 34.4922 105.153 34.614L107.781 35.1031L107.153 33.3453L107.865 33.4513L108.117 31.9724C108.744 28.305 106.934 24.8259 105.338 21.7562C104.778 20.681 104.245 19.6558 103.84 18.6812C104.911 16.2132 105.594 13.6096 105.925 10.7442C106.234 8.06352 106.233 5.10243 105.922 1.69171L105.768 0L104.092 0.328902C101.659 0.80638 99.2414 1.9049 96.9074 3.59424C94.9976 4.97683 93.5208 6.47373 92.5436 7.46364C92.3641 7.64564 92.1623 7.85033 91.9888 8.02063H83.2562Z" fill="#FF5C00" style="fill:#FF5C00;fill:color(display-p3 1.0000 0.3600 0.0000);fill-opacity:1;"/>
<path fillRule="evenodd" clipRule="evenodd" d="M102.174 18.6417C102.693 17.5204 103.128 16.3623 103.475 15.1769C103.142 15.1574 102.817 15.067 102.521 14.9117C102.226 14.7565 101.968 14.5401 101.763 14.2772C101.559 14.0142 101.415 13.7108 101.339 13.3874C101.262 13.0639 101.257 12.7281 101.323 12.4024C101.388 12.0768 101.524 11.7689 101.719 11.4997C101.915 11.2304 102.166 11.0059 102.456 10.8415C102.746 10.677 103.069 10.5763 103.401 10.5463C103.734 10.5162 104.069 10.5575 104.385 10.6673C104.467 9.96925 104.528 9.26401 104.565 8.55153C104.189 8.5292 103.837 8.36362 103.581 8.0893C103.325 7.81497 103.185 7.45305 103.191 7.07892C103.197 6.70479 103.348 6.3473 103.612 6.08091C103.876 5.81453 104.234 5.65979 104.61 5.64893C104.585 4.40141 104.508 3.12953 104.39 1.83008C97.9264 3.0982 93.7177 8.74467 92.5123 9.60619C91.7594 9.51359 89.5842 9.40219 87.6256 9.35554H87.6189C85.6602 9.40261 83.4851 9.51401 82.7322 9.60619C81.5262 8.74495 77.318 3.0982 70.8548 1.83008C70.2981 7.933 70.6549 13.4301 73.0708 18.6417C71.5933 22.6644 67.8649 27.1567 68.6439 31.7165L70.4011 31.455L69.8091 33.1104C74.8943 32.1645 81.4731 34.4611 85.41 39.1816C86.2269 39.8711 86.8764 40.277 87.6228 40.243C88.3686 40.277 89.0181 39.8711 89.8356 39.1816C93.7725 34.4611 100.351 32.165 105.436 33.1104L104.844 31.455L106.602 31.7165C107.379 27.1567 103.651 22.6644 102.174 18.6417Z" fill="#1C1C1C" style="fill:#1C1C1C;fill:color(display-p3 0.1098 0.1098 0.1098);fill-opacity:1;"/>
<path fillRule="evenodd" clipRule="evenodd" d="M80.5291 25.9674C82.4596 26.9289 84.0408 26.2924 84.7769 24.3955C85.2545 24.4333 85.2976 24.4331 85.5976 24.4017C84.0379 23.8149 83.388 23.7791 81.0959 21.9534C80.021 20.9078 78.259 20.971 77.2838 21.2818C75.8532 21.7629 78.0148 21.3833 78.1715 21.4134C78.9083 21.751 77.9068 22.235 77.8415 23.5112C78.0197 24.8907 77.9816 24.6403 76.8599 25.2434C77.9469 24.8239 79.4349 25.4708 80.5291 25.9674Z" fill="#FF5C00" style="fill:#FF5C00;fill:color(display-p3 1.0000 0.3600 0.0000);fill-opacity:1;"/>
<path fillRule="evenodd" clipRule="evenodd" d="M79.686 24.9627C81.505 25.6983 82.0963 26.2272 83.1062 25.5197C83.3863 25.3235 83.6944 25.1114 83.7796 24.2155C81.9531 23.8962 79.69 20.2554 78.8301 23.1612C78.6734 23.6077 78.7601 23.9852 78.8301 24.4475C78.871 24.7147 78.9328 24.7533 79.686 24.9627Z" fill="white" style="fill:white;fill-opacity:1;"/>
<path fillRule="evenodd" clipRule="evenodd" d="M93.3294 26.0492C93.7407 26.0352 94.1934 25.9191 94.4979 25.7679C95.3306 25.3547 95.5623 24.8367 96.2153 24.3881C99.4896 22.5 101.008 25.1275 101.218 25.553C100.932 23.8729 100.176 23.7723 99.7292 23.3397C98.8652 22.7326 99.4264 22.3412 99.2895 21.09C99.2722 20.9331 99.2217 20.6407 99.3183 20.4541C99.7148 20.2612 99.7437 20.699 100.071 20.844C99.2168 18.4311 96.7734 18.7781 95.1679 19.5168C92.8653 20.5762 91.8174 23.2726 88.8633 24.5353C89.2974 24.5655 89.5775 24.3848 89.8641 24.38C90.6861 25.4801 91.9527 26.0969 93.3295 26.0497L93.3294 26.0492Z" fill="#FF5C00" style="fill:#FF5C00;fill:color(display-p3 1.0000 0.3600 0.0000);fill-opacity:1;"/>
<path fillRule="evenodd" clipRule="evenodd" d="M97.5033 20.3701C93.939 20.0916 93.2388 22.6557 90.8984 24.076C91.1063 24.4747 91.6351 24.8498 92.1499 25.0646C95.3151 26.3542 94.7396 23.3156 98.1194 23.262C98.2496 22.6958 98.5516 20.2648 97.5033 20.3701Z" fill="white" style="fill:white;fill-opacity:1;"/>
</g>
<path d="M0.27 53.4H9.45V55.38H5.904V66H3.834V55.38H0.27V53.4ZM19.4507 58.566V53.4H21.5207V66H19.4507V60.546H14.0507V66H11.9807V53.4H14.0507V58.566H19.4507ZM27.1093 60.618V64.02H32.6893V66H25.0393V53.4H32.5993V55.38H27.1093V58.656H32.1493V60.618H27.1093ZM48.6442 61.95V53.4H50.7142V66H49.0942L43.1542 57.45V66H41.0842V53.4H42.7042L48.6442 61.95ZM64.7607 64.344C63.5007 65.604 61.9587 66.234 60.1347 66.234C58.3107 66.234 56.7627 65.604 55.4907 64.344C54.2307 63.072 53.6007 61.524 53.6007 59.7C53.6007 57.876 54.2307 56.334 55.4907 55.074C56.7627 53.802 58.3107 53.166 60.1347 53.166C61.9587 53.166 63.5007 53.802 64.7607 55.074C66.0327 56.334 66.6687 57.876 66.6687 59.7C66.6687 61.524 66.0327 63.072 64.7607 64.344ZM56.9487 62.94C57.8247 63.792 58.8867 64.218 60.1347 64.218C61.3947 64.218 62.4507 63.792 63.3027 62.94C64.1667 62.076 64.5987 60.996 64.5987 59.7C64.5987 58.404 64.1667 57.33 63.3027 56.478C62.4507 55.614 61.3947 55.182 60.1347 55.182C58.8747 55.182 57.8127 55.614 56.9487 56.478C56.0967 57.33 55.6707 58.404 55.6707 59.7C55.6707 60.984 56.0967 62.064 56.9487 62.94ZM69.3254 61.824V53.4H71.3954V61.698C71.3954 62.478 71.6234 63.096 72.0794 63.552C72.5474 63.996 73.2194 64.218 74.0954 64.218C74.9714 64.218 75.6374 63.996 76.0934 63.552C76.5614 63.096 76.7954 62.478 76.7954 61.698V53.4H78.8654V61.824C78.8654 63.156 78.4214 64.23 77.5334 65.046C76.6574 65.838 75.5114 66.234 74.0954 66.234C72.6794 66.234 71.5334 65.838 70.6574 65.046C69.7694 64.23 69.3254 63.156 69.3254 61.824ZM88.2043 59.484H94.5043V60.348C94.5043 62.076 93.9343 63.492 92.7943 64.596C91.6663 65.688 90.1783 66.234 88.3303 66.234C86.3863 66.234 84.7783 65.604 83.5063 64.344C82.2463 63.084 81.6163 61.536 81.6163 59.7C81.6163 57.876 82.2463 56.334 83.5063 55.074C84.7783 53.802 86.3503 53.166 88.2223 53.166C89.3863 53.166 90.4543 53.436 91.4263 53.976C92.4103 54.504 93.1723 55.23 93.7123 56.154L91.9303 57.18C91.5943 56.568 91.0963 56.082 90.4363 55.722C89.7763 55.362 89.0383 55.182 88.2223 55.182C86.9023 55.182 85.8163 55.614 84.9643 56.478C84.1123 57.354 83.6863 58.434 83.6863 59.718C83.6863 61.014 84.1123 62.088 84.9643 62.94C85.8403 63.792 86.9683 64.218 88.3483 64.218C89.4523 64.218 90.3583 63.96 91.0663 63.444C91.7743 62.928 92.2243 62.226 92.4163 61.338H88.2043V59.484ZM104.867 58.566V53.4H106.937V66H104.867V60.546H99.4667V66H97.3967V53.4H99.4667V58.566H104.867ZM109.465 53.4H118.645V55.38H115.099V66H113.029V55.38H109.465V53.4ZM128.502 53.4H130.86L126.468 60.996V66H124.398V60.996L120.006 53.4H122.364L125.442 58.98L128.502 53.4ZM146.095 53.4V55.38H140.785V58.908H145.915V60.888H140.785V66H138.715V53.4H146.095ZM159.561 64.344C158.301 65.604 156.759 66.234 154.935 66.234C153.111 66.234 151.563 65.604 150.291 64.344C149.031 63.072 148.401 61.524 148.401 59.7C148.401 57.876 149.031 56.334 150.291 55.074C151.563 53.802 153.111 53.166 154.935 53.166C156.759 53.166 158.301 53.802 159.561 55.074C160.833 56.334 161.469 57.876 161.469 59.7C161.469 61.524 160.833 63.072 159.561 64.344ZM151.749 62.94C152.625 63.792 153.687 64.218 154.935 64.218C156.195 64.218 157.251 63.792 158.103 62.94C158.967 62.076 159.399 60.996 159.399 59.7C159.399 58.404 158.967 57.33 158.103 56.478C157.251 55.614 156.195 55.182 154.935 55.182C153.675 55.182 152.613 55.614 151.749 56.478C150.897 57.33 150.471 58.404 150.471 59.7C150.471 60.984 150.897 62.064 151.749 62.94ZM169.053 59.52L172.995 66H170.637L167.865 61.446L165.093 66H162.735L166.695 59.52L162.969 53.4H165.309L167.865 57.594L170.421 53.4H172.779L169.053 59.52Z" fill="#FF5C00" style="fill:#FF5C00;fill:color(display-p3 1.0000 0.3600 0.0000);fill-opacity:1;"/>
<defs>
<clipPath id="clip0_362_1688">
<rect width="41.2453" height="41.7741" fill="white" style="fill:white;fill-opacity:1;" transform="translate(67)"/>
</clipPath>
</defs>
</svg>
